<?xml version="1.0" encoding="utf-8"?>
<!-- Generator: Adobe Illustrator 23.0.2, SVG Export Plug-In . SVG Version: 6.00 Build 0)  -->
<svg version="1.1" id="Warstwa_1" xmlns="http://www.w3.org/2000/svg" xmlns:xlink="http://www.w3.org/1999/xlink" x="0px" y="0px"
	 width="51.333px" height="43.633px" viewBox="0 0 51.333 43.633" style="enable-background:new 0 0 51.333 43.633;"
	 xml:space="preserve">
<style type="text/css">
	.st0{fill:#FFFFFF;}
</style>
<g id="Iconos_18_">
	<g id="Group-9_2_" transform="translate(-2.000000, -5.000000)">
		<path id="Shape_16_" class="st0" d="M13.548,23.05c-1.431-1.437-1.498-3.759-0.119-5.277c0.066-0.071,0.066-0.071,0.134-0.14
			l3.767-3.746c1.479-1.471,3.864-1.488,5.375-0.027l3.792,3.76c1.518,1.467,1.562,3.885,0.101,5.407l2.246-0.004
			c-1.405-1.439-1.463-3.742-0.092-5.25c0.066-0.071,0.066-0.071,0.134-0.14l3.767-3.746c1.479-1.471,3.864-1.488,5.375-0.027
			l3.792,3.76c1.509,1.459,1.561,3.856,0.127,5.379l3.597-0.006l0-0.012V8.94c0-0.705-0.572-1.277-1.277-1.277H11.067
			c-0.705,0-1.277,0.572-1.277,1.277v5.107c0,0.705-0.572,1.277-1.277,1.277s-1.277-0.572-1.277-1.277V8.94
			c0-2.116,1.715-3.831,3.831-3.831h33.199c2.116,0,3.831,1.715,3.831,3.831v14.041l0,0.007l1.27-0.002
			c2.116-0.004,3.834,1.708,3.837,3.824l0,15.326c0,0.705-0.572,1.277-1.277,1.277h-3.831l0,0.003v3.827
			c0,0.705-0.572,1.277-1.277,1.277s-1.277-0.572-1.277-1.277v-3.827l0-0.003H9.79l0,0.003v3.831c0,0.705-0.572,1.277-1.277,1.277
			s-1.277-0.572-1.277-1.277v-3.831l0-0.003H3.406c-0.705,0-1.277-0.572-1.277-1.277V26.894c0-2.113,1.711-3.827,3.824-3.831
			L13.548,23.05z M17.328,23.043l5.56-0.01c0.064-0.109,0.145-0.21,0.244-0.299c0.924-0.838,1.623-1.475,1.621-1.473
			c0.49-0.507,0.476-1.315-0.042-1.817l-3.792-3.76c-0.5-0.483-1.295-0.478-1.788,0.013l-3.767,3.746
			c-0.023,0.023-0.023,0.023-0.045,0.047c-0.474,0.522-0.435,1.33,0.087,1.804l1.866,1.695
			C17.291,23.006,17.31,23.025,17.328,23.043z M38.226,23.006c0.061-0.098,0.137-0.19,0.227-0.272
			c0.924-0.838,1.623-1.475,1.621-1.473c0.49-0.507,0.476-1.315-0.042-1.817l-3.792-3.76c-0.5-0.483-1.295-0.478-1.788,0.013
			l-3.767,3.746c-0.023,0.023-0.023,0.023-0.045,0.047c-0.474,0.522-0.435,1.33,0.087,1.804l1.866,1.695
			c0.01,0.009,0.019,0.018,0.029,0.027L38.226,23.006z M4.683,30.647h37.029c0.705,0,1.277,0.572,1.277,1.277
			s-0.572,1.277-1.277,1.277H4.683v7.658H50.65V26.816c-0.001-0.707-0.574-1.278-1.279-1.277L5.957,25.617
			c-0.704,0.001-1.275,0.573-1.275,1.277V30.647z"/>
	</g>
</g>
</svg>
