<?xml version="1.0" encoding="utf-8"?>
<!-- Generator: Adobe Illustrator 23.0.3, SVG Export Plug-In . SVG Version: 6.00 Build 0)  -->
<svg version="1.1" id="Warstwa_1" xmlns="http://www.w3.org/2000/svg" xmlns:xlink="http://www.w3.org/1999/xlink" x="0px" y="0px"
	 width="29px" height="27px" viewBox="0 0 29 27" style="enable-background:new 0 0 29 27;" xml:space="preserve">
<style type="text/css">
	.st0{fill-rule:evenodd;clip-rule:evenodd;fill:#FFFFFF;}
</style>
<title>ico breakfast</title>
<desc>Created with Sketch.</desc>
<g id="Iconos">
	<g id="ico-breakfast" transform="translate(-1.000000, -2.000000)">
		<path id="breakfast" class="st0" d="M22.981,18.498c0.19-0.757,0.325-1.544,0.414-2.351c0.37-0.334,0.896-0.551,1.467-0.551
			c1.187,0,2.15,0.885,2.15,1.958s-0.963,1.938-2.15,1.938C24.056,19.491,23.34,19.098,22.981,18.498L22.981,18.498z M11.49,24.744
			h8.803c0.75-0.748,1.422-1.692,1.915-2.774c0.728,0.512,1.658-0.541,2.654-0.541c2.386,0,4.312-1.741,4.312-3.876
			c0-2.154-1.926-3.896-4.312-3.896c-0.504,0-1.008,0.954-1.467,1.092c-0.022-0.285-0.056-0.58-0.101-0.876H8.488
			c-0.09,0.63-0.146,2.656-0.146,3.315C8.343,20.652,9.597,22.856,11.49,24.744z M1.892,26.004c0,1.977,6.272,2.558,14,2.558
			s14-0.58,14-2.558c0-0.108-0.011-0.207-0.067-0.315H1.959C1.903,25.797,1.892,25.895,1.892,26.004L1.892,26.004z M11.938,12.457
			h2.878c0,0-0.952-2.391,2.15-3.886C21.1,6.574,19.128,2,19.128,2s0.403,4.102-2.878,5.283
			C11.333,9.034,11.938,12.457,11.938,12.457L11.938,12.457z M17.684,12.457h2.162c0,0-0.403-0.767,0.717-1.938
			c1.12-1.181,0.717-3.335,0.717-3.335s0,2.115-1.434,2.686C17.896,10.628,17.684,12.457,17.684,12.457L17.684,12.457z"/>
	</g>
</g>
</svg>
