<?xml version="1.0" encoding="utf-8"?>
<!-- Generator: Adobe Illustrator 23.0.3, SVG Export Plug-In . SVG Version: 6.00 Build 0)  -->
<svg version="1.1" id="Warstwa_1" xmlns="http://www.w3.org/2000/svg" xmlns:xlink="http://www.w3.org/1999/xlink" x="0px" y="0px"
	 width="30px" height="25px" viewBox="0 0 30 25" style="enable-background:new 0 0 30 25;" xml:space="preserve">
<style type="text/css">
	.st0{fill-rule:evenodd;clip-rule:evenodd;fill:#FFFFFF;}
</style>
<title>ico wifi</title>
<desc>Created with Sketch.</desc>
<g id="Iconos">
	<g id="ico-wifi" transform="translate(-1.000000, -4.000000)">
		<path id="wifi" class="st0" d="M22.147,19.357c-1.646-1.74-3.899-2.826-6.397-2.826s-4.753,1.085-6.397,2.826l-0.062,0.061
			l2.081,2.205l0.047-0.045c1.118-1.18,2.639-1.91,4.332-1.91s3.214,0.731,4.332,1.91l0.047,0.045l2.081-2.205L22.147,19.357
			L22.147,19.357z M26.308,14.931c-2.717-2.888-6.442-4.658-10.558-4.658s-7.841,1.77-10.558,4.658l-0.047,0.047l2.081,2.22
			l0.047-0.045c2.172-2.313,5.17-3.742,8.477-3.742s6.305,1.428,8.477,3.742l0.047,0.045l2.081-2.22L26.308,14.931L26.308,14.931z
			 M30.455,10.504C26.681,6.484,21.478,4,15.75,4S4.819,6.484,1.045,10.504L1,10.554l2.081,2.22l0.047-0.064
			c3.245-3.445,7.701-5.574,12.623-5.574s9.378,2.129,12.623,5.574l0.047,0.064l2.081-2.22L30.455,10.504L30.455,10.504z
			 M15.766,23.796c-1.304,0-2.36,1.133-2.36,2.531c0,1.382,1.056,2.515,2.36,2.515s2.36-1.133,2.36-2.515
			C18.124,24.929,17.07,23.796,15.766,23.796L15.766,23.796z"/>
	</g>
</g>
</svg>
